<?xml version="1.0" encoding="UTF-8" standalone="no"?>
<!DOCTYPE svg PUBLIC "-//W3C//DTD SVG 1.1//EN"
 "http://www.w3.org/Graphics/SVG/1.1/DTD/svg11.dtd">
<!-- Generated by graphviz version 2.26.3 (20100126.1600)
 -->
<!-- Title: G Pages: 1 -->
<svg width="594pt" height="408pt"
 viewBox="0.00 0.00 594.00 408.00" xmlns="http://www.w3.org/2000/svg" xmlns:xlink="http://www.w3.org/1999/xlink">
<g id="graph1" class="graph" transform="scale(1 1) rotate(0) translate(4 404)">
<title>G</title>
<polygon fill="white" stroke="white" points="-4,5 -4,-404 591,-404 591,5 -4,5"/>
<g id="graph2" class="cluster"><title>cluster_SQL</title>
<polyline fill="none" stroke="gray" points="20,-44 566,-44 "/>
<path fill="none" stroke="gray" d="M566,-44C572,-44 578,-50 578,-56"/>
<polyline fill="none" stroke="gray" points="578,-56 578,-380 "/>
<path fill="none" stroke="gray" d="M578,-380C578,-386 572,-392 566,-392"/>
<polyline fill="none" stroke="gray" points="566,-392 20,-392 "/>
<path fill="none" stroke="gray" d="M20,-392C14,-392 8,-386 8,-380"/>
<polyline fill="none" stroke="gray" points="8,-380 8,-56 "/>
<path fill="none" stroke="gray" d="M8,-56C8,-50 14,-44 20,-44"/>
<text text-anchor="middle" x="293" y="-378.1" font-family="Times Roman,serif" font-size="11.00" fill="gray">SQL</text>
</g>
<g id="graph3" class="cluster"><title>cluster_SQL\Base</title>
<polyline fill="none" stroke="gray" points="28,-98 325,-98 "/>
<path fill="none" stroke="gray" d="M325,-98C331,-98 337,-104 337,-110"/>
<polyline fill="none" stroke="gray" points="337,-110 337,-160 "/>
<path fill="none" stroke="gray" d="M337,-160C337,-166 331,-172 325,-172"/>
<polyline fill="none" stroke="gray" points="325,-172 28,-172 "/>
<path fill="none" stroke="gray" d="M28,-172C22,-172 16,-166 16,-160"/>
<polyline fill="none" stroke="gray" points="16,-160 16,-110 "/>
<path fill="none" stroke="gray" d="M16,-110C16,-104 22,-98 28,-98"/>
<text text-anchor="middle" x="176.5" y="-158.1" font-family="Times Roman,serif" font-size="11.00" fill="gray">Base</text>
</g>
<g id="graph4" class="cluster"><title>cluster_SQL\Exception</title>
<polyline fill="none" stroke="gray" points="408,-288 558,-288 "/>
<path fill="none" stroke="gray" d="M558,-288C564,-288 570,-294 570,-300"/>
<polyline fill="none" stroke="gray" points="570,-300 570,-350 "/>
<path fill="none" stroke="gray" d="M570,-350C570,-356 564,-362 558,-362"/>
<polyline fill="none" stroke="gray" points="558,-362 408,-362 "/>
<path fill="none" stroke="gray" d="M408,-362C402,-362 396,-356 396,-350"/>
<polyline fill="none" stroke="gray" points="396,-350 396,-300 "/>
<path fill="none" stroke="gray" d="M396,-300C396,-294 402,-288 408,-288"/>
<text text-anchor="middle" x="483" y="-348.1" font-family="Times Roman,serif" font-size="11.00" fill="gray">Exception</text>
</g>
<g id="graph5" class="cluster"><title>cluster_SQL\Proxy</title>
<polyline fill="none" stroke="gray" points="408,-206 558,-206 "/>
<path fill="none" stroke="gray" d="M558,-206C564,-206 570,-212 570,-218"/>
<polyline fill="none" stroke="gray" points="570,-218 570,-268 "/>
<path fill="none" stroke="gray" d="M570,-268C570,-274 564,-280 558,-280"/>
<polyline fill="none" stroke="gray" points="558,-280 408,-280 "/>
<path fill="none" stroke="gray" d="M408,-280C402,-280 396,-274 396,-268"/>
<polyline fill="none" stroke="gray" points="396,-268 396,-218 "/>
<path fill="none" stroke="gray" d="M396,-218C396,-212 402,-206 408,-206"/>
<text text-anchor="middle" x="483" y="-266.1" font-family="Times Roman,serif" font-size="11.00" fill="gray">Proxy</text>
</g>
<!-- \\SQL\\Base\\WhereQueryBuilder -->
<g id="node3" class="node"><title>\\SQL\\Base\\WhereQueryBuilder</title>
<a xlink:href="Base.WhereQueryBuilder.html" xlink:title="WhereQueryBuilder" target="_parent">
<polygon fill="none" stroke="black" points="328,-142 198,-142 198,-106 328,-106 328,-142"/>
<text text-anchor="middle" x="263" y="-121.1" font-family="Courier,monospace" font-size="11.00">WhereQueryBuilder</text>
</a>
</g>
<!-- \\SQL\\Base\\QueryBuilder -->
<g id="node4" class="node"><title>\\SQL\\Base\\QueryBuilder</title>
<a xlink:href="Base.QueryBuilder.html" xlink:title="QueryBuilder" target="_parent">
<polygon fill="none" stroke="black" points="122,-142 24,-142 24,-106 122,-106 122,-142"/>
<text text-anchor="middle" x="73" y="-121.1" font-family="Courier,monospace" font-size="11.00">QueryBuilder</text>
</a>
</g>
<!-- \\SQL\\Base\\WhereQueryBuilder&#45;&gt;\\SQL\\Base\\QueryBuilder -->
<g id="edge6" class="edge"><title>\\SQL\\Base\\WhereQueryBuilder&#45;&gt;\\SQL\\Base\\QueryBuilder</title>
<path fill="none" stroke="black" d="M197.347,-124C176.242,-124 152.994,-124 132.368,-124"/>
<polygon fill="none" stroke="black" points="132.16,-120.5 122.16,-124 132.16,-127.5 132.16,-120.5"/>
</g>
<!-- \\SQL\\Exception\\QueryBuilderException -->
<g id="node6" class="node"><title>\\SQL\\Exception\\QueryBuilderException</title>
<a xlink:href="Exception.QueryBuilderException.html" xlink:title="QueryBuilderException" target="_parent">
<polygon fill="none" stroke="black" points="562,-332 404,-332 404,-296 562,-296 562,-332"/>
<text text-anchor="middle" x="483" y="-311.1" font-family="Courier,monospace" font-size="11.00">QueryBuilderException</text>
</a>
</g>
<!-- \\Exception -->
<g id="node17" class="node"><title>\\Exception</title>
<ellipse fill="none" stroke="black" cx="263" cy="-18" rx="62.9325" ry="18.3848"/>
<text text-anchor="middle" x="263" y="-14.4" font-family="Times Roman,serif" font-size="14.00" fill="gray">\Exception</text>
</g>
<!-- \\SQL\\Exception\\QueryBuilderException&#45;&gt;\\Exception -->
<g id="edge12" class="edge"><title>\\SQL\\Exception\\QueryBuilderException&#45;&gt;\\Exception</title>
<path fill="none" stroke="black" d="M411.209,-295.768C405.631,-292.475 400.448,-288.588 396,-284 334.452,-220.515 382.201,-169.996 337,-94 325.215,-74.1868 307.262,-55.5783 291.99,-41.7338"/>
<polygon fill="none" stroke="black" points="294.111,-38.9369 284.296,-34.9471 289.48,-44.1867 294.111,-38.9369"/>
</g>
<!-- \\SQL\\Proxy\\QueryConditionalProxy -->
<g id="node8" class="node"><title>\\SQL\\Proxy\\QueryConditionalProxy</title>
<a xlink:href="Proxy.QueryConditionalProxy.html" xlink:title="QueryConditionalProxy" target="_parent">
<polygon fill="none" stroke="black" points="562,-250 404,-250 404,-214 562,-214 562,-250"/>
<text text-anchor="middle" x="483" y="-229.1" font-family="Courier,monospace" font-size="11.00">QueryConditionalProxy</text>
</a>
</g>
<!-- \\SQL\\DeleteQueryBuilder -->
<g id="node9" class="node"><title>\\SQL\\DeleteQueryBuilder</title>
<a xlink:href="DeleteQueryBuilder.html" xlink:title="DeleteQueryBuilder" target="_parent">
<polygon fill="none" stroke="black" points="552,-88 414,-88 414,-52 552,-52 552,-88"/>
<text text-anchor="middle" x="483" y="-67.1" font-family="Courier,monospace" font-size="11.00">DeleteQueryBuilder</text>
</a>
</g>
<!-- \\SQL\\DeleteQueryBuilder&#45;&gt;\\SQL\\Base\\WhereQueryBuilder -->
<g id="edge8" class="edge"><title>\\SQL\\DeleteQueryBuilder&#45;&gt;\\SQL\\Base\\WhereQueryBuilder</title>
<path fill="none" stroke="black" d="M413.994,-86.9378C390.071,-92.8097 363.13,-99.4227 338.697,-105.42"/>
<polygon fill="none" stroke="black" points="337.633,-102.077 328.756,-107.86 339.302,-108.875 337.633,-102.077"/>
</g>
<!-- \\SQL\\UpdateQueryBuilder -->
<g id="node10" class="node"><title>\\SQL\\UpdateQueryBuilder</title>
<a xlink:href="UpdateQueryBuilder.html" xlink:title="UpdateQueryBuilder" target="_parent">
<polygon fill="none" stroke="black" points="552,-196 414,-196 414,-160 552,-160 552,-196"/>
<text text-anchor="middle" x="483" y="-175.1" font-family="Courier,monospace" font-size="11.00">UpdateQueryBuilder</text>
</a>
</g>
<!-- \\SQL\\UpdateQueryBuilder&#45;&gt;\\SQL\\Base\\WhereQueryBuilder -->
<g id="edge10" class="edge"><title>\\SQL\\UpdateQueryBuilder&#45;&gt;\\SQL\\Base\\WhereQueryBuilder</title>
<path fill="none" stroke="black" d="M413.994,-161.062C390.071,-155.19 363.13,-148.577 338.697,-142.58"/>
<polygon fill="none" stroke="black" points="339.302,-139.125 328.756,-140.14 337.633,-145.923 339.302,-139.125"/>
</g>
<!-- \\SQL\\InsertQueryBuilder -->
<g id="node11" class="node"><title>\\SQL\\InsertQueryBuilder</title>
<a xlink:href="InsertQueryBuilder.html" xlink:title="InsertQueryBuilder" target="_parent">
<polygon fill="none" stroke="black" points="332,-216 194,-216 194,-180 332,-180 332,-216"/>
<text text-anchor="middle" x="263" y="-195.1" font-family="Courier,monospace" font-size="11.00">InsertQueryBuilder</text>
</a>
</g>
<!-- \\SQL\\InsertQueryBuilder&#45;&gt;\\SQL\\Base\\QueryBuilder -->
<g id="edge14" class="edge"><title>\\SQL\\InsertQueryBuilder&#45;&gt;\\SQL\\Base\\QueryBuilder</title>
<path fill="none" stroke="black" d="M204.883,-179.92C201.187,-178.631 197.534,-177.319 194,-176 169.929,-167.015 143.676,-155.898 121.795,-146.253"/>
<polygon fill="none" stroke="black" points="122.949,-142.936 112.389,-142.079 120.11,-149.335 122.949,-142.936"/>
</g>
<!-- \\SQL\\SelectQueryBuilder -->
<g id="node12" class="node"><title>\\SQL\\SelectQueryBuilder</title>
<a xlink:href="SelectQueryBuilder.html" xlink:title="SelectQueryBuilder" target="_parent">
<polygon fill="none" stroke="black" points="552,-142 414,-142 414,-106 552,-106 552,-142"/>
<text text-anchor="middle" x="483" y="-121.1" font-family="Courier,monospace" font-size="11.00">SelectQueryBuilder</text>
</a>
</g>
<!-- \\SQL\\SelectQueryBuilder&#45;&gt;\\SQL\\Base\\WhereQueryBuilder -->
<g id="edge16" class="edge"><title>\\SQL\\SelectQueryBuilder&#45;&gt;\\SQL\\Base\\WhereQueryBuilder</title>
<path fill="none" stroke="black" d="M413.994,-124C390.178,-124 363.369,-124 339.023,-124"/>
<polygon fill="none" stroke="black" points="338.756,-120.5 328.756,-124 338.756,-127.5 338.756,-120.5"/>
</g>
</g>
</svg>
