<?xml version="1.0" encoding="UTF-8" standalone="no"?>
<!DOCTYPE svg PUBLIC "-//W3C//DTD SVG 1.1//EN"
 "http://www.w3.org/Graphics/SVG/1.1/DTD/svg11.dtd">
<!-- Generated by graphviz version 2.26.3 (20100126.1600)
 -->
<!-- Title: G Pages: 1 -->
<svg width="594pt" height="409pt"
 viewBox="0.00 0.00 594.00 409.00" xmlns="http://www.w3.org/2000/svg" xmlns:xlink="http://www.w3.org/1999/xlink">
<g id="graph1" class="graph" transform="scale(1 1) rotate(0) translate(4 405)">
<title>G</title>
<polygon fill="white" stroke="white" points="-4,5 -4,-405 591,-405 591,5 -4,5"/>
<g id="graph2" class="cluster"><title>cluster_SQL</title>
<polyline fill="none" stroke="gray" points="20,-45 566,-45 "/>
<path fill="none" stroke="gray" d="M566,-45C572,-45 578,-51 578,-57"/>
<polyline fill="none" stroke="gray" points="578,-57 578,-381 "/>
<path fill="none" stroke="gray" d="M578,-381C578,-387 572,-393 566,-393"/>
<polyline fill="none" stroke="gray" points="566,-393 20,-393 "/>
<path fill="none" stroke="gray" d="M20,-393C14,-393 8,-387 8,-381"/>
<polyline fill="none" stroke="gray" points="8,-381 8,-57 "/>
<path fill="none" stroke="gray" d="M8,-57C8,-51 14,-45 20,-45"/>
<text text-anchor="middle" x="293" y="-379.1" font-family="Times Roman,serif" font-size="11.00" fill="gray">SQL</text>
</g>
<g id="graph3" class="cluster"><title>cluster_SQL\Base</title>
<polyline fill="none" stroke="gray" points="28,-100 325,-100 "/>
<path fill="none" stroke="gray" d="M325,-100C331,-100 337,-106 337,-112"/>
<polyline fill="none" stroke="gray" points="337,-112 337,-162 "/>
<path fill="none" stroke="gray" d="M337,-162C337,-168 331,-174 325,-174"/>
<polyline fill="none" stroke="gray" points="325,-174 28,-174 "/>
<path fill="none" stroke="gray" d="M28,-174C22,-174 16,-168 16,-162"/>
<polyline fill="none" stroke="gray" points="16,-162 16,-112 "/>
<path fill="none" stroke="gray" d="M16,-112C16,-106 22,-100 28,-100"/>
<text text-anchor="middle" x="176.5" y="-160.1" font-family="Times Roman,serif" font-size="11.00" fill="gray">Base</text>
</g>
<g id="graph4" class="cluster"><title>cluster_SQL\Exception</title>
<polyline fill="none" stroke="gray" points="408,-289 558,-289 "/>
<path fill="none" stroke="gray" d="M558,-289C564,-289 570,-295 570,-301"/>
<polyline fill="none" stroke="gray" points="570,-301 570,-351 "/>
<path fill="none" stroke="gray" d="M570,-351C570,-357 564,-363 558,-363"/>
<polyline fill="none" stroke="gray" points="558,-363 408,-363 "/>
<path fill="none" stroke="gray" d="M408,-363C402,-363 396,-357 396,-351"/>
<polyline fill="none" stroke="gray" points="396,-351 396,-301 "/>
<path fill="none" stroke="gray" d="M396,-301C396,-295 402,-289 408,-289"/>
<text text-anchor="middle" x="483" y="-349.1" font-family="Times Roman,serif" font-size="11.00" fill="gray">Exception</text>
</g>
<g id="graph5" class="cluster"><title>cluster_SQL\Proxy</title>
<polyline fill="none" stroke="gray" points="408,-207 558,-207 "/>
<path fill="none" stroke="gray" d="M558,-207C564,-207 570,-213 570,-219"/>
<polyline fill="none" stroke="gray" points="570,-219 570,-269 "/>
<path fill="none" stroke="gray" d="M570,-269C570,-275 564,-281 558,-281"/>
<polyline fill="none" stroke="gray" points="558,-281 408,-281 "/>
<path fill="none" stroke="gray" d="M408,-281C402,-281 396,-275 396,-269"/>
<polyline fill="none" stroke="gray" points="396,-269 396,-219 "/>
<path fill="none" stroke="gray" d="M396,-219C396,-213 402,-207 408,-207"/>
<text text-anchor="middle" x="483" y="-267.1" font-family="Times Roman,serif" font-size="11.00" fill="gray">Proxy</text>
</g>
<!-- \\SQL\\Base\\WhereQueryBuilder -->
<g id="node3" class="node"><title>\\SQL\\Base\\WhereQueryBuilder</title>
<a xlink:href="Base.WhereQueryBuilder.html" xlink:title="WhereQueryBuilder" target="_parent">
<polygon fill="none" stroke="black" points="328,-144 198,-144 198,-108 328,-108 328,-144"/>
<text text-anchor="middle" x="263" y="-123.1" font-family="Courier,monospace" font-size="11.00">WhereQueryBuilder</text>
</a>
</g>
<!-- \\SQL\\Base\\QueryBuilder -->
<g id="node4" class="node"><title>\\SQL\\Base\\QueryBuilder</title>
<a xlink:href="Base.QueryBuilder.html" xlink:title="QueryBuilder" target="_parent">
<polygon fill="none" stroke="black" points="122,-144 24,-144 24,-108 122,-108 122,-144"/>
<text text-anchor="middle" x="73" y="-123.1" font-family="Courier,monospace" font-size="11.00">QueryBuilder</text>
</a>
</g>
<!-- \\SQL\\Base\\WhereQueryBuilder&#45;&gt;\\SQL\\Base\\QueryBuilder -->
<g id="edge10" class="edge"><title>\\SQL\\Base\\WhereQueryBuilder&#45;&gt;\\SQL\\Base\\QueryBuilder</title>
<path fill="none" stroke="black" d="M197.347,-126C176.242,-126 152.994,-126 132.368,-126"/>
<polygon fill="none" stroke="black" points="132.16,-122.5 122.16,-126 132.16,-129.5 132.16,-122.5"/>
</g>
<!-- \\SQL\\Exception\\QueryBuilderException -->
<g id="node6" class="node"><title>\\SQL\\Exception\\QueryBuilderException</title>
<a xlink:href="Exception.QueryBuilderException.html" xlink:title="QueryBuilderException" target="_parent">
<polygon fill="none" stroke="black" points="562,-333 404,-333 404,-297 562,-297 562,-333"/>
<text text-anchor="middle" x="483" y="-312.1" font-family="Courier,monospace" font-size="11.00">QueryBuilderException</text>
</a>
</g>
<!-- \\Exception -->
<g id="node14" class="node"><title>\\Exception</title>
<ellipse fill="none" stroke="black" cx="263" cy="-18" rx="62.9325" ry="18.3848"/>
<text text-anchor="middle" x="263" y="-14.4" font-family="Times Roman,serif" font-size="14.00" fill="gray">\Exception</text>
</g>
<!-- \\SQL\\Exception\\QueryBuilderException&#45;&gt;\\Exception -->
<g id="edge6" class="edge"><title>\\SQL\\Exception\\QueryBuilderException&#45;&gt;\\Exception</title>
<path fill="none" stroke="black" d="M410.479,-296.813C405.126,-293.511 400.192,-289.61 396,-285 320.935,-202.458 413.323,-122.379 337,-41 333.808,-37.5961 330.122,-34.6924 326.135,-32.2158"/>
<polygon fill="none" stroke="black" points="327.485,-28.9724 317,-27.448 324.246,-35.1779 327.485,-28.9724"/>
</g>
<!-- \\SQL\\Proxy\\QueryConditionalProxy -->
<g id="node8" class="node"><title>\\SQL\\Proxy\\QueryConditionalProxy</title>
<a xlink:href="Proxy.QueryConditionalProxy.html" xlink:title="QueryConditionalProxy" target="_parent">
<polygon fill="none" stroke="black" points="562,-251 404,-251 404,-215 562,-215 562,-251"/>
<text text-anchor="middle" x="483" y="-230.1" font-family="Courier,monospace" font-size="11.00">QueryConditionalProxy</text>
</a>
</g>
<!-- \\SQL\\UpdateQueryBuilder -->
<g id="node9" class="node"><title>\\SQL\\UpdateQueryBuilder</title>
<a xlink:href="UpdateQueryBuilder.html" xlink:title="UpdateQueryBuilder" target="_parent">
<polygon fill="none" stroke="black" points="552,-89 414,-89 414,-53 552,-53 552,-89"/>
<text text-anchor="middle" x="483" y="-68.1" font-family="Courier,monospace" font-size="11.00">UpdateQueryBuilder</text>
</a>
</g>
<!-- \\SQL\\UpdateQueryBuilder&#45;&gt;\\SQL\\Base\\WhereQueryBuilder -->
<g id="edge8" class="edge"><title>\\SQL\\UpdateQueryBuilder&#45;&gt;\\SQL\\Base\\WhereQueryBuilder</title>
<path fill="none" stroke="black" d="M413.994,-88.2514C390.071,-94.2321 363.13,-100.968 338.697,-107.076"/>
<polygon fill="none" stroke="black" points="337.608,-103.74 328.756,-109.561 339.306,-110.531 337.608,-103.74"/>
</g>
<!-- \\SQL\\DeleteQueryBuilder -->
<g id="node10" class="node"><title>\\SQL\\DeleteQueryBuilder</title>
<a xlink:href="DeleteQueryBuilder.html" xlink:title="DeleteQueryBuilder" target="_parent">
<polygon fill="none" stroke="black" points="552,-197 414,-197 414,-161 552,-161 552,-197"/>
<text text-anchor="middle" x="483" y="-176.1" font-family="Courier,monospace" font-size="11.00">DeleteQueryBuilder</text>
</a>
</g>
<!-- \\SQL\\DeleteQueryBuilder&#45;&gt;\\SQL\\Base\\WhereQueryBuilder -->
<g id="edge12" class="edge"><title>\\SQL\\DeleteQueryBuilder&#45;&gt;\\SQL\\Base\\WhereQueryBuilder</title>
<path fill="none" stroke="black" d="M413.994,-162.376C390.071,-156.613 363.13,-150.122 338.697,-144.236"/>
<polygon fill="none" stroke="black" points="339.297,-140.781 328.756,-141.841 337.658,-147.586 339.297,-140.781"/>
</g>
<!-- \\SQL\\SelectQueryBuilder -->
<g id="node11" class="node"><title>\\SQL\\SelectQueryBuilder</title>
<a xlink:href="SelectQueryBuilder.html" xlink:title="SelectQueryBuilder" target="_parent">
<polygon fill="none" stroke="black" points="552,-143 414,-143 414,-107 552,-107 552,-143"/>
<text text-anchor="middle" x="483" y="-122.1" font-family="Courier,monospace" font-size="11.00">SelectQueryBuilder</text>
</a>
</g>
<!-- \\SQL\\SelectQueryBuilder&#45;&gt;\\SQL\\Base\\WhereQueryBuilder -->
<g id="edge14" class="edge"><title>\\SQL\\SelectQueryBuilder&#45;&gt;\\SQL\\Base\\WhereQueryBuilder</title>
<path fill="none" stroke="black" d="M413.994,-125.314C390.178,-125.422 363.369,-125.544 339.023,-125.654"/>
<polygon fill="none" stroke="black" points="338.74,-122.156 328.756,-125.701 338.772,-129.156 338.74,-122.156"/>
</g>
<!-- \\SQL\\InsertQueryBuilder -->
<g id="node12" class="node"><title>\\SQL\\InsertQueryBuilder</title>
<a xlink:href="InsertQueryBuilder.html" xlink:title="InsertQueryBuilder" target="_parent">
<polygon fill="none" stroke="black" points="332,-90 194,-90 194,-54 332,-54 332,-90"/>
<text text-anchor="middle" x="263" y="-69.1" font-family="Courier,monospace" font-size="11.00">InsertQueryBuilder</text>
</a>
</g>
<!-- \\SQL\\InsertQueryBuilder&#45;&gt;\\SQL\\Base\\QueryBuilder -->
<g id="edge16" class="edge"><title>\\SQL\\InsertQueryBuilder&#45;&gt;\\SQL\\Base\\QueryBuilder</title>
<path fill="none" stroke="black" d="M199.469,-90.0563C177.577,-96.278 153.173,-103.214 131.686,-109.321"/>
<polygon fill="none" stroke="black" points="130.701,-105.962 122.039,-112.063 132.615,-112.695 130.701,-105.962"/>
</g>
</g>
</svg>
